<svg width="44" height="50" viewBox="0 0 44 50" fill="none" xmlns="http://www.w3.org/2000/svg">
<path d="M25.3321 12.4602L22.9355 9.65118C21.9578 8.50519 20.6737 7.6615 19.2338 7.21893L19.1086 7.18045C16.8327 6.48095 14.3869 6.57378 12.1706 7.44377V7.44377C11.6857 7.63412 11.2351 7.90237 10.8367 8.23795L10.0106 8.9338C9.19269 9.62269 8.47055 10.4178 7.86335 11.298L7.71381 11.5148C7.16159 12.3153 6.75996 13.2098 6.52862 14.1544L6.18791 15.5456C5.77322 17.2389 5.77407 19.0074 6.19038 20.7003V20.7003C6.51043 22.0017 7.00495 23.2539 7.66051 24.4227L7.9762 24.9856C8.18117 25.3511 8.42241 25.695 8.69628 26.0122L10.9903 28.6686" stroke="black" stroke-width="5" stroke-linecap="round"/>
<path d="M18.9613 37.5096L21.0243 39.8776C22.2867 41.3268 23.9513 42.3681 25.8067 42.8694L25.9446 42.9066C27.8169 43.4124 29.8008 43.3172 31.6161 42.6345V42.6345C32.429 42.3287 33.175 41.8685 33.8131 41.2793L35.4568 39.7612L36.1531 38.9212C37.049 37.8404 37.6448 36.5428 37.8805 35.1587L38.1194 33.7558C38.3223 32.5638 38.3309 31.3291 38.15 30.1336V30.1336C37.8728 28.3019 37.2623 26.5077 36.356 24.8919V24.8919C36.1956 24.6059 36.0068 24.3367 35.7925 24.0885L33.4089 21.3284" stroke="black" stroke-width="5" stroke-linecap="round"/>
<path d="M3.64062 4.01953L12.2781 14.0158" stroke="black" stroke-width="5" stroke-linecap="round"/>
<path d="M32.0508 35.9185L40.6836 45.9187" stroke="black" stroke-width="5" stroke-linecap="round"/>
<path d="M1.94922 34.4265L6.04547 34.4267" stroke="black" stroke-width="3" stroke-linecap="round"/>
<path d="M38.3145 15.5471L42.4107 15.5473" stroke="black" stroke-width="3" stroke-linecap="round"/>
<path d="M6.02373 43.1442L9.16617 39.5747" stroke="black" stroke-width="3" stroke-linecap="round"/>
<path d="M35.1429 10.4108L38.2853 6.8413" stroke="black" stroke-width="3" stroke-linecap="round"/>
<path d="M13.7182 47.8266L13.7188 43.0508" stroke="black" stroke-width="3" stroke-linecap="round"/>
<path d="M30.5463 6.89885L30.5469 2.12305" stroke="black" stroke-width="3" stroke-linecap="round"/>
</svg>
